<svg xmlns="http://www.w3.org/2000/svg" viewBox="0 0 169.18 69.26"><title>Recurso 1logo</title><g id="a0d0b2a4-9483-4e2a-a8c7-72e5abb83814" data-name="Capa 2"><g id="ad45a52e-df4f-4e26-bccc-7cebb569261a" data-name="Capa 1"><polygon points="135.59 0.17 128.55 0.17 145.98 34.8 169.19 34.8 135.59 0.17" style="fill:#dc8e2f"/><polygon points="125.43 4.85 135.59 34.63 145.98 34.63 128.55 0 125.43 4.85" style="fill:#f1ce36"/><polygon points="135.59 69.26 128.55 69.26 145.98 34.63 169.19 34.63 135.59 69.26" style="fill:#c45d2d"/><polygon points="125.43 64.42 135.59 34.63 145.98 34.63 128.55 69.26 125.43 64.42" style="fill:#e9b732"/><polygon points="85.02 19.81 92.6 19.81 97.33 35.36 112.01 19.81 120.5 19.81 111.27 46.47 102.32 46.47 106 35.84 98.02 43.58 90.99 43.58 88.39 35.88 84.75 46.47 75.8 46.47 85.02 19.81" style="fill:#2d2d2d"/><path d="M40.65,21.57A5.94,5.94,0,0,0,36,19.81H14.31L5.09,46.47H27.64a8.77,8.77,0,0,0,5.46-1.76,9.3,9.3,0,0,0,3.23-4.31l5-14.52a4.1,4.1,0,0,0-.67-4.31m-8.58,5.16L27.64,39.54a.69.69,0,0,1-.74.49H16.27L20,29.21l-3.26-2.95H31.67c.39,0,.53.16.4.48" style="fill:#2d2d2d"/><path d="M79.34,19.81H55.29A9.13,9.13,0,0,0,50,21.5a8.73,8.73,0,0,0-3.35,4.38l-5.87,17a2.38,2.38,0,0,0,.4,2.52,3.49,3.49,0,0,0,2.75,1H64.74q5.66,0,7.78-6.07L76.1,30H59.25l-.77,2.23A2.46,2.46,0,0,0,61,35.36h4.35l-1.45,4.18c-.1.33-.37.49-.83.49H51c-.25,0-.34-.1-.28-.3L54.5,28.9l-2.91-2.64H77.11Z" style="fill:#2d2d2d"/><polygon points="3.14 52.22 7.08 52.22 7.97 57.34 12.89 52.22 16.83 52.22 13.7 60.17 11.2 60.17 13.45 54.46 13.43 54.46 7.81 60.17 5.89 60.17 4.77 54.46 4.75 54.46 2.5 60.17 0 60.17 3.14 52.22" style="fill:#dc8e2f"/><path d="M19.16,52.22h2.56l-1.81,4.59c-.39,1-.17,1.41.88,1.41h2.55a1.88,1.88,0,0,0,2-1.41l1.81-4.59h2.57l-2,5.12a4.4,4.4,0,0,1-4.59,2.92H19.42c-2.36,0-3.06-.95-2.28-2.92Z" style="fill:#dc8e2f"/><path d="M32.84,52.22h7.75c2.57,0,3.16.8,2.38,2.77L42,57.4c-.77,2-2,2.77-4.56,2.77H29.71Zm.24,5.91h4.56a1.89,1.89,0,0,0,2.09-1.43l.42-1.08c.45-1.13.14-1.42-1-1.42H34.63Z" style="fill:#dc8e2f"/><path d="M50.25,52.22h3.34l1.47,8H52.2L52,58.77H46.75l-1.3,1.4H42.58Zm-1.86,4.83h3.29l-.49-3Z" style="fill:#dc8e2f"/><polygon points="60.17 52.22 64.15 52.22 66.69 58 66.72 58 68.99 52.22 71.56 52.22 68.43 60.17 64.45 60.17 61.9 54.39 61.88 54.39 59.6 60.17 57.03 60.17 60.17 52.22" style="fill:#dc8e2f"/><polygon points="71.53 58.26 79.15 54.15 79.16 54.13 73.32 54.13 74.07 52.22 83.71 52.22 82.96 54.13 75.34 58.24 75.33 58.26 81.47 58.26 80.71 60.17 70.78 60.17 71.53 58.26" style="fill:#dc8e2f"/><path d="M89.85,52.22h3.34l1.47,8H91.81l-.25-1.4h-5.2l-1.31,1.4H82.18ZM88,57.05h3.29l-.49-3Z" style="fill:#dc8e2f"/><path d="M96.84,57.57h2.57c-.32.84,0,.91.75.91h3.15c.54,0,1.12,0,1.36-.67s0-.74-3.32-.74c-3.86,0-4.13-.44-3.36-2.39.57-1.44,1.15-2.55,4.39-2.55H106c3,0,2.87,1,2.32,2.35l-.1.25h-2.57c.23-.58.25-.82-.93-.82h-2.84a1.2,1.2,0,0,0-1.22.62c-.27.69,0,.71,2.79.7,4,0,4.83.22,3.92,2.54-.85,2.14-1.75,2.49-5.16,2.49H99.06c-2.34,0-3.11-.42-2.43-2.14Z" style="fill:#dc8e2f"/></g></g></svg>