<svg xmlns="http://www.w3.org/2000/svg" viewBox="0 0 32 32"><defs><style>.cls-1{fill:#e00817;}.cls-2{fill:#f6e210;}</style></defs><g id="Capa_2" data-name="Capa 2"><g id="Capa_1-2" data-name="Capa 1"><circle class="cls-1" cx="16" cy="16" r="16"/><path class="cls-2" d="M9.88,9.19H9a.76.76,0,0,1-.76-.76h0A.76.76,0,0,1,9,7.67h.9a.76.76,0,0,1,.76.76h0A.76.76,0,0,1,9.88,9.19Z"/><path class="cls-2" d="M6.27,20.12h-.9a.76.76,0,0,1-.76-.76h0a.76.76,0,0,1,.76-.76h.9a.76.76,0,0,1,.77.76H7A.76.76,0,0,1,6.27,20.12Z"/><path class="cls-2" d="M6.27,12.84h-.9a.76.76,0,0,1-.76-.76h0a.77.77,0,0,1,.76-.77h.9a.77.77,0,0,1,.77.77H7A.76.76,0,0,1,6.27,12.84Z"/><rect class="cls-2" x="2.53" y="14.96" width="4.51" height="1.52" rx="0.67"/><path class="cls-2" d="M25.17,7.6l-7.38.07H12a.78.78,0,0,0-.79.69.76.76,0,0,0,.76.83h1.09a1.06,1.06,0,0,1,1,1.17,1.09,1.09,0,0,1-1.1.94H8.54a.79.79,0,0,0-.79.69.76.76,0,0,0,.76.84h1.76a1.06,1.06,0,0,1,1,.7,1.08,1.08,0,0,1-1,1.42H8.37a.76.76,0,0,0-.76.76h0a.76.76,0,0,0,.76.76h1.9a1.06,1.06,0,1,1,0,2.12H8.54a.78.78,0,0,0-.79.69.76.76,0,0,0,.76.83h4.37a1.1,1.1,0,0,1,1.1.93,1.07,1.07,0,0,1-1,1.19H11.21a.78.78,0,0,0-.79.69.76.76,0,0,0,.76.83h4.3A1.27,1.27,0,0,1,16.75,25v.38s.12.43,1,.67a8.25,8.25,0,0,0,2.37.21c2.62-.21,4.88-1.13,6-3.75a27.89,27.89,0,0,0,1-3.46H24a1.23,1.23,0,0,0-1.19.93,4.42,4.42,0,0,1-.14.52,8.86,8.86,0,0,1-.63,1.7,1.57,1.57,0,0,1-1.81,1h0c-2.32-.05-4.73.22-5.23-1.61-.28-1,.21-2.64.8-4.58a6.86,6.86,0,0,0,.2-2.6c.12.12.25.23.38.34a13.76,13.76,0,0,0-.11-2.22c.2.18.39.34.59.49l0-.18a12.85,12.85,0,0,0-.11-2.14,3.68,3.68,0,0,0,.37.32,13.22,13.22,0,0,0,0-2.18c2,2.2,4.47,1.52,6.2,1.7h0a1.64,1.64,0,0,1,.93,1.74c0,.3-.07.6-.13.94a.79.79,0,0,0,.78.91h3c.16-.67.32-1.25.44-1.84C28.9,9.61,27.89,8.11,25.17,7.6Z"/><path class="cls-2" d="M20.45,21h-.06a.25.25,0,0,1-.19-.3l2.05-9.1a.25.25,0,0,1,.48.11l-2,9.1A.25.25,0,0,1,20.45,21Z"/><circle class="cls-2" cx="20.2" cy="21.97" r="0.31"/></g></g></svg>